<mxfile host="app.diagrams.net" modified="2023-04-07T02:31:49.007Z" agent="5.0 (X11; Linux x86_64) AppleWebKit/537.36 (KHTML, like Gecko) Chrome/111.0.0.0 Safari/537.36" etag="bcIoW1jwTHZV5H_CkAub" version="21.0.10" type="github">
  <diagram name="第 1 页" id="Ml2EfFp9A3bxc2xUPDL8">
    <mxGraphModel dx="819" dy="416" grid="1" gridSize="10" guides="1" tooltips="1" connect="1" arrows="1" fold="1" page="1" pageScale="1" pageWidth="827" pageHeight="1169" math="0" shadow="0">
      <root>
        <mxCell id="0" />
        <mxCell id="1" parent="0" />
        <mxCell id="9ckuHaTD7fZ2OgeTRrUu-46" value="" style="group" vertex="1" connectable="0" parent="1">
          <mxGeometry x="500" y="239.99545454545455" width="156" height="210" as="geometry" />
        </mxCell>
        <mxCell id="9ckuHaTD7fZ2OgeTRrUu-65" value="" style="rounded=0;whiteSpace=wrap;html=1;" vertex="1" parent="9ckuHaTD7fZ2OgeTRrUu-46">
          <mxGeometry x="46" y="-20" width="110" height="200" as="geometry" />
        </mxCell>
        <mxCell id="9ckuHaTD7fZ2OgeTRrUu-47" value="" style="rounded=0;whiteSpace=wrap;html=1;" vertex="1" parent="9ckuHaTD7fZ2OgeTRrUu-46">
          <mxGeometry x="23" y="-10.90545454545455" width="110" height="200" as="geometry" />
        </mxCell>
        <mxCell id="9ckuHaTD7fZ2OgeTRrUu-38" value="" style="rounded=0;whiteSpace=wrap;html=1;" vertex="1" parent="9ckuHaTD7fZ2OgeTRrUu-46">
          <mxGeometry width="110" height="210" as="geometry" />
        </mxCell>
        <mxCell id="9ckuHaTD7fZ2OgeTRrUu-17" value="k8s集群" style="text;strokeColor=none;align=center;fillColor=none;html=1;verticalAlign=middle;whiteSpace=wrap;rounded=0;" vertex="1" parent="9ckuHaTD7fZ2OgeTRrUu-46">
          <mxGeometry width="51.81818181818182" height="28.636363636363637" as="geometry" />
        </mxCell>
        <mxCell id="9ckuHaTD7fZ2OgeTRrUu-22" value="" style="group" vertex="1" connectable="0" parent="9ckuHaTD7fZ2OgeTRrUu-46">
          <mxGeometry x="23.00181818181823" y="20.91090909090909" width="94.54818181818177" height="89.09" as="geometry" />
        </mxCell>
        <mxCell id="9ckuHaTD7fZ2OgeTRrUu-26" value="" style="group" vertex="1" connectable="0" parent="9ckuHaTD7fZ2OgeTRrUu-22">
          <mxGeometry width="94.54818181818177" height="89.09" as="geometry" />
        </mxCell>
        <mxCell id="9ckuHaTD7fZ2OgeTRrUu-18" value="" style="whiteSpace=wrap;html=1;aspect=fixed;" vertex="1" parent="9ckuHaTD7fZ2OgeTRrUu-26">
          <mxGeometry x="10" width="70" height="70" as="geometry" />
        </mxCell>
        <mxCell id="9ckuHaTD7fZ2OgeTRrUu-19" value="" style="whiteSpace=wrap;html=1;aspect=fixed;" vertex="1" parent="9ckuHaTD7fZ2OgeTRrUu-26">
          <mxGeometry y="9.55" width="70" height="70" as="geometry" />
        </mxCell>
        <mxCell id="9ckuHaTD7fZ2OgeTRrUu-20" value="" style="whiteSpace=wrap;html=1;aspect=fixed;" vertex="1" parent="9ckuHaTD7fZ2OgeTRrUu-26">
          <mxGeometry x="-10" y="19.09" width="70" height="70" as="geometry" />
        </mxCell>
        <mxCell id="9ckuHaTD7fZ2OgeTRrUu-24" value="&lt;p style=&quot;line-height: 90%; font-size: 11px;&quot;&gt;&lt;font style=&quot;font-size: 11px;&quot;&gt;bkeagent&lt;/font&gt;&lt;/p&gt;" style="rounded=0;whiteSpace=wrap;html=1;fontSize=8;" vertex="1" parent="9ckuHaTD7fZ2OgeTRrUu-26">
          <mxGeometry x="-2.84" y="62.72999999999999" width="55.68" height="19.09" as="geometry" />
        </mxCell>
        <mxCell id="9ckuHaTD7fZ2OgeTRrUu-25" value="master" style="text;strokeColor=none;align=center;fillColor=none;html=1;verticalAlign=middle;whiteSpace=wrap;rounded=0;" vertex="1" parent="9ckuHaTD7fZ2OgeTRrUu-26">
          <mxGeometry x="22.044545454545457" y="43.63636363636364" width="25.90909090909091" height="19.090909090909093" as="geometry" />
        </mxCell>
        <mxCell id="9ckuHaTD7fZ2OgeTRrUu-78" value="裸机" style="text;strokeColor=none;align=center;fillColor=none;html=1;verticalAlign=middle;whiteSpace=wrap;rounded=0;" vertex="1" parent="9ckuHaTD7fZ2OgeTRrUu-26">
          <mxGeometry x="-10.00181818181818" y="19.093636363636335" width="30" height="20" as="geometry" />
        </mxCell>
        <mxCell id="9ckuHaTD7fZ2OgeTRrUu-39" value="" style="group" vertex="1" connectable="0" parent="9ckuHaTD7fZ2OgeTRrUu-46">
          <mxGeometry x="22.16181818181823" y="114.91090909090909" width="94.54818181818177" height="89.09" as="geometry" />
        </mxCell>
        <mxCell id="9ckuHaTD7fZ2OgeTRrUu-40" value="" style="group" vertex="1" connectable="0" parent="9ckuHaTD7fZ2OgeTRrUu-39">
          <mxGeometry width="94.54818181818177" height="89.09" as="geometry" />
        </mxCell>
        <mxCell id="9ckuHaTD7fZ2OgeTRrUu-41" value="" style="whiteSpace=wrap;html=1;aspect=fixed;" vertex="1" parent="9ckuHaTD7fZ2OgeTRrUu-40">
          <mxGeometry x="10" width="70" height="70" as="geometry" />
        </mxCell>
        <mxCell id="9ckuHaTD7fZ2OgeTRrUu-42" value="" style="whiteSpace=wrap;html=1;aspect=fixed;" vertex="1" parent="9ckuHaTD7fZ2OgeTRrUu-40">
          <mxGeometry y="9.55" width="70" height="70" as="geometry" />
        </mxCell>
        <mxCell id="9ckuHaTD7fZ2OgeTRrUu-43" value="" style="whiteSpace=wrap;html=1;aspect=fixed;" vertex="1" parent="9ckuHaTD7fZ2OgeTRrUu-40">
          <mxGeometry x="-10" y="19.09" width="70" height="70" as="geometry" />
        </mxCell>
        <mxCell id="9ckuHaTD7fZ2OgeTRrUu-44" value="&lt;p style=&quot;line-height: 90%; font-size: 11px;&quot;&gt;&lt;font style=&quot;font-size: 11px;&quot;&gt;bkeagent&lt;/font&gt;&lt;/p&gt;" style="rounded=0;whiteSpace=wrap;html=1;fontSize=8;" vertex="1" parent="9ckuHaTD7fZ2OgeTRrUu-40">
          <mxGeometry x="-2.84" y="62.72999999999999" width="55.68" height="19.09" as="geometry" />
        </mxCell>
        <mxCell id="9ckuHaTD7fZ2OgeTRrUu-45" value="worker" style="text;strokeColor=none;align=center;fillColor=none;html=1;verticalAlign=middle;whiteSpace=wrap;rounded=0;" vertex="1" parent="9ckuHaTD7fZ2OgeTRrUu-40">
          <mxGeometry x="22.044545454545457" y="39.09636363636364" width="25.90909090909091" height="19.090909090909093" as="geometry" />
        </mxCell>
        <mxCell id="9ckuHaTD7fZ2OgeTRrUu-99" value="裸机" style="text;strokeColor=none;align=center;fillColor=none;html=1;verticalAlign=middle;whiteSpace=wrap;rounded=0;" vertex="1" parent="9ckuHaTD7fZ2OgeTRrUu-40">
          <mxGeometry x="-10.001818181818294" y="19.093636363636392" width="30" height="20" as="geometry" />
        </mxCell>
        <mxCell id="9ckuHaTD7fZ2OgeTRrUu-66" value="" style="group" vertex="1" connectable="0" parent="1">
          <mxGeometry x="160" y="220" width="250" height="250" as="geometry" />
        </mxCell>
        <mxCell id="9ckuHaTD7fZ2OgeTRrUu-1" value="" style="whiteSpace=wrap;html=1;aspect=fixed;" vertex="1" parent="9ckuHaTD7fZ2OgeTRrUu-66">
          <mxGeometry width="250" height="250" as="geometry" />
        </mxCell>
        <mxCell id="9ckuHaTD7fZ2OgeTRrUu-36" value="" style="group" vertex="1" connectable="0" parent="9ckuHaTD7fZ2OgeTRrUu-66">
          <mxGeometry x="20" y="70" width="140" height="140" as="geometry" />
        </mxCell>
        <mxCell id="9ckuHaTD7fZ2OgeTRrUu-34" value="" style="whiteSpace=wrap;html=1;aspect=fixed;" vertex="1" parent="9ckuHaTD7fZ2OgeTRrUu-36">
          <mxGeometry x="-10" y="30" width="140" height="140" as="geometry" />
        </mxCell>
        <mxCell id="9ckuHaTD7fZ2OgeTRrUu-2" value="cluster-api-provider-bke" style="whiteSpace=wrap;html=1;aspect=fixed;" vertex="1" parent="9ckuHaTD7fZ2OgeTRrUu-36">
          <mxGeometry x="50" y="90" width="70" height="70" as="geometry" />
        </mxCell>
        <mxCell id="9ckuHaTD7fZ2OgeTRrUu-35" value="cluster-api" style="text;strokeColor=none;align=center;fillColor=none;html=1;verticalAlign=middle;whiteSpace=wrap;rounded=0;" vertex="1" parent="9ckuHaTD7fZ2OgeTRrUu-36">
          <mxGeometry x="-10" y="30" width="60" height="30" as="geometry" />
        </mxCell>
        <mxCell id="9ckuHaTD7fZ2OgeTRrUu-37" value="k3s管理集群" style="text;strokeColor=none;align=center;fillColor=none;html=1;verticalAlign=middle;whiteSpace=wrap;rounded=0;" vertex="1" parent="9ckuHaTD7fZ2OgeTRrUu-66">
          <mxGeometry width="70" height="30" as="geometry" />
        </mxCell>
        <mxCell id="9ckuHaTD7fZ2OgeTRrUu-74" value="" style="rounded=0;whiteSpace=wrap;html=1;" vertex="1" parent="9ckuHaTD7fZ2OgeTRrUu-66">
          <mxGeometry x="50" y="30" width="80" height="30" as="geometry" />
        </mxCell>
        <mxCell id="9ckuHaTD7fZ2OgeTRrUu-73" value="" style="rounded=0;whiteSpace=wrap;html=1;" vertex="1" parent="9ckuHaTD7fZ2OgeTRrUu-66">
          <mxGeometry x="40" y="40" width="80" height="30" as="geometry" />
        </mxCell>
        <mxCell id="9ckuHaTD7fZ2OgeTRrUu-72" value="bkeCluster CR" style="rounded=0;whiteSpace=wrap;html=1;" vertex="1" parent="9ckuHaTD7fZ2OgeTRrUu-66">
          <mxGeometry x="30" y="50" width="80" height="30" as="geometry" />
        </mxCell>
        <mxCell id="9ckuHaTD7fZ2OgeTRrUu-76" value="" style="endArrow=classic;html=1;rounded=0;entryX=0.5;entryY=1;entryDx=0;entryDy=0;exitX=0.5;exitY=0;exitDx=0;exitDy=0;" edge="1" parent="9ckuHaTD7fZ2OgeTRrUu-66" source="9ckuHaTD7fZ2OgeTRrUu-2" target="9ckuHaTD7fZ2OgeTRrUu-72">
          <mxGeometry width="50" height="50" relative="1" as="geometry">
            <mxPoint x="104" y="130" as="sourcePoint" />
            <mxPoint x="154" y="80" as="targetPoint" />
          </mxGeometry>
        </mxCell>
        <mxCell id="9ckuHaTD7fZ2OgeTRrUu-77" value="监听" style="edgeLabel;html=1;align=center;verticalAlign=middle;resizable=0;points=[];" vertex="1" connectable="0" parent="9ckuHaTD7fZ2OgeTRrUu-76">
          <mxGeometry x="0.0582" relative="1" as="geometry">
            <mxPoint as="offset" />
          </mxGeometry>
        </mxCell>
        <mxCell id="9ckuHaTD7fZ2OgeTRrUu-105" value="" style="rounded=0;whiteSpace=wrap;html=1;" vertex="1" parent="9ckuHaTD7fZ2OgeTRrUu-66">
          <mxGeometry x="160" y="30" width="80" height="30" as="geometry" />
        </mxCell>
        <mxCell id="9ckuHaTD7fZ2OgeTRrUu-106" value="" style="rounded=0;whiteSpace=wrap;html=1;" vertex="1" parent="9ckuHaTD7fZ2OgeTRrUu-66">
          <mxGeometry x="150" y="40" width="80" height="30" as="geometry" />
        </mxCell>
        <mxCell id="9ckuHaTD7fZ2OgeTRrUu-107" value="command CR" style="rounded=0;whiteSpace=wrap;html=1;" vertex="1" parent="9ckuHaTD7fZ2OgeTRrUu-66">
          <mxGeometry x="140" y="50" width="80" height="30" as="geometry" />
        </mxCell>
        <mxCell id="9ckuHaTD7fZ2OgeTRrUu-108" value="" style="endArrow=classic;html=1;rounded=0;exitX=0.75;exitY=0;exitDx=0;exitDy=0;entryX=0.5;entryY=1;entryDx=0;entryDy=0;" edge="1" parent="9ckuHaTD7fZ2OgeTRrUu-66" source="9ckuHaTD7fZ2OgeTRrUu-2" target="9ckuHaTD7fZ2OgeTRrUu-107">
          <mxGeometry width="50" height="50" relative="1" as="geometry">
            <mxPoint x="270" y="120" as="sourcePoint" />
            <mxPoint x="320" y="70" as="targetPoint" />
          </mxGeometry>
        </mxCell>
        <mxCell id="9ckuHaTD7fZ2OgeTRrUu-109" value="创建" style="edgeLabel;html=1;align=center;verticalAlign=middle;resizable=0;points=[];" vertex="1" connectable="0" parent="9ckuHaTD7fZ2OgeTRrUu-108">
          <mxGeometry x="0.3442" relative="1" as="geometry">
            <mxPoint as="offset" />
          </mxGeometry>
        </mxCell>
        <mxCell id="9ckuHaTD7fZ2OgeTRrUu-67" value="Actor" style="shape=umlActor;verticalLabelPosition=bottom;verticalAlign=top;html=1;outlineConnect=0;" vertex="1" parent="1">
          <mxGeometry x="261" y="60" width="30" height="60" as="geometry" />
        </mxCell>
        <mxCell id="9ckuHaTD7fZ2OgeTRrUu-69" value="" style="shape=flexArrow;endArrow=classic;html=1;rounded=0;" edge="1" parent="1" source="9ckuHaTD7fZ2OgeTRrUu-67" target="9ckuHaTD7fZ2OgeTRrUu-1">
          <mxGeometry width="50" height="50" relative="1" as="geometry">
            <mxPoint x="370" y="290" as="sourcePoint" />
            <mxPoint x="420" y="240" as="targetPoint" />
          </mxGeometry>
        </mxCell>
        <mxCell id="9ckuHaTD7fZ2OgeTRrUu-71" value="创建bkeCluster CR" style="text;strokeColor=none;align=center;fillColor=none;html=1;verticalAlign=middle;whiteSpace=wrap;rounded=0;" vertex="1" parent="1">
          <mxGeometry x="240" y="160" width="90" height="30" as="geometry" />
        </mxCell>
        <mxCell id="9ckuHaTD7fZ2OgeTRrUu-100" value="" style="endArrow=classic;html=1;rounded=0;exitX=1;exitY=0.5;exitDx=0;exitDy=0;entryX=0;entryY=0.5;entryDx=0;entryDy=0;" edge="1" parent="1" source="9ckuHaTD7fZ2OgeTRrUu-2" target="9ckuHaTD7fZ2OgeTRrUu-44">
          <mxGeometry width="50" height="50" relative="1" as="geometry">
            <mxPoint x="350" y="330" as="sourcePoint" />
            <mxPoint x="400" y="280" as="targetPoint" />
          </mxGeometry>
        </mxCell>
        <mxCell id="9ckuHaTD7fZ2OgeTRrUu-110" value="" style="endArrow=none;dashed=1;html=1;rounded=0;exitX=1;exitY=0.5;exitDx=0;exitDy=0;entryX=0;entryY=0.5;entryDx=0;entryDy=0;startArrow=classic;startFill=1;" edge="1" parent="1" source="9ckuHaTD7fZ2OgeTRrUu-107" target="9ckuHaTD7fZ2OgeTRrUu-24">
          <mxGeometry width="50" height="50" relative="1" as="geometry">
            <mxPoint x="430" y="340" as="sourcePoint" />
            <mxPoint x="480" y="290" as="targetPoint" />
          </mxGeometry>
        </mxCell>
        <mxCell id="9ckuHaTD7fZ2OgeTRrUu-112" value="监听" style="edgeLabel;html=1;align=center;verticalAlign=middle;resizable=0;points=[];" vertex="1" connectable="0" parent="9ckuHaTD7fZ2OgeTRrUu-110">
          <mxGeometry x="-0.153" y="2" relative="1" as="geometry">
            <mxPoint as="offset" />
          </mxGeometry>
        </mxCell>
        <mxCell id="9ckuHaTD7fZ2OgeTRrUu-111" value="" style="endArrow=none;dashed=1;html=1;rounded=0;exitX=1;exitY=0.5;exitDx=0;exitDy=0;entryX=0;entryY=0.5;entryDx=0;entryDy=0;startArrow=classic;startFill=1;" edge="1" parent="1" source="9ckuHaTD7fZ2OgeTRrUu-107" target="9ckuHaTD7fZ2OgeTRrUu-44">
          <mxGeometry width="50" height="50" relative="1" as="geometry">
            <mxPoint x="390" y="295" as="sourcePoint" />
            <mxPoint x="530" y="343" as="targetPoint" />
          </mxGeometry>
        </mxCell>
        <mxCell id="9ckuHaTD7fZ2OgeTRrUu-113" value="监听" style="edgeLabel;html=1;align=center;verticalAlign=middle;resizable=0;points=[];" vertex="1" connectable="0" parent="9ckuHaTD7fZ2OgeTRrUu-111">
          <mxGeometry x="-0.4367" relative="1" as="geometry">
            <mxPoint as="offset" />
          </mxGeometry>
        </mxCell>
        <mxCell id="9ckuHaTD7fZ2OgeTRrUu-115" value="" style="endArrow=classic;html=1;rounded=0;exitX=1;exitY=0.5;exitDx=0;exitDy=0;entryX=0;entryY=0.5;entryDx=0;entryDy=0;" edge="1" parent="1" source="9ckuHaTD7fZ2OgeTRrUu-2" target="9ckuHaTD7fZ2OgeTRrUu-24">
          <mxGeometry width="50" height="50" relative="1" as="geometry">
            <mxPoint x="310" y="425" as="sourcePoint" />
            <mxPoint x="529" y="437" as="targetPoint" />
          </mxGeometry>
        </mxCell>
        <mxCell id="9ckuHaTD7fZ2OgeTRrUu-116" value="推送启动agent" style="edgeLabel;html=1;align=center;verticalAlign=middle;resizable=0;points=[];" vertex="1" connectable="0" parent="9ckuHaTD7fZ2OgeTRrUu-115">
          <mxGeometry x="0.2421" y="1" relative="1" as="geometry">
            <mxPoint x="-76" y="40" as="offset" />
          </mxGeometry>
        </mxCell>
      </root>
    </mxGraphModel>
  </diagram>
</mxfile>
